<svg width="74" height="68" viewBox="0 0 74 68" fill="none" xmlns="http://www.w3.org/2000/svg">
<path d="M20.4821 67.4734C9.17016 52.8328 11.8685 31.7941 26.5091 20.4822C41.1496 9.17017 62.1883 11.8685 73.5003 26.5091L20.4821 67.4734Z" fill="#D3B888"/>
<path d="M38.5 36.6C38.5 37.0498 38.5773 37.4775 38.7179 37.873C38.931 38.4726 38.8298 39.1391 38.4482 39.6484C38.0667 40.1577 37.4555 40.4422 36.8201 40.4062C36.7474 40.4021 36.674 40.4 36.6 40.4C34.5013 40.4 32.8 42.1013 32.8 44.2C32.8 45.1745 33.1643 46.0593 33.7671 46.7329C34.4128 47.4543 34.4128 48.5457 33.7671 49.2671C33.1643 49.9407 32.8 50.8255 32.8 51.8C32.8 53.48 33.8915 54.9101 35.4092 55.4102C36.3135 55.7083 36.8576 56.6296 36.6818 57.5655C36.6283 57.8507 36.6 58.1462 36.6 58.45C36.6 61.0733 38.7266 63.2 41.35 63.2C43.7413 63.2 45.7228 61.4311 46.0517 59.1308C46.0631 59.0513 46.0793 58.9736 46.1 58.898V36.6C46.1 34.5013 44.3987 32.8 42.3 32.8C40.2013 32.8 38.5 34.5013 38.5 36.6ZM49.9 58.898C49.9207 58.9736 49.9368 59.0513 49.9482 59.1308C50.2771 61.4311 52.2586 63.2 54.65 63.2C57.2733 63.2 59.4 61.0733 59.4 58.45C59.4 58.1462 59.3717 57.8507 59.3181 57.5655C59.1423 56.6296 59.6865 55.7083 60.5907 55.4102C62.1084 54.9101 63.2 53.48 63.2 51.8C63.2 50.8255 62.8357 49.9407 62.2329 49.2671C61.5871 48.5457 61.5871 47.4543 62.2329 46.7329C62.8357 46.0593 63.2 45.1745 63.2 44.2C63.2 42.1013 61.4987 40.4 59.4 40.4C59.3259 40.4 59.2525 40.4021 59.1798 40.4062C58.5444 40.4422 57.9334 40.1577 57.5516 39.6484C57.1701 39.1391 57.0689 38.4726 57.282 37.873C57.4226 37.4775 57.5 37.0498 57.5 36.6C57.5 34.5013 55.7987 32.8 53.7 32.8C51.6012 32.8 49.9 34.5013 49.9 36.6V58.898ZM42.3 29C44.5699 29 46.6075 29.9951 48 31.5729C49.3925 29.9951 51.43 29 53.7 29C57.8973 29 61.3 32.4026 61.3 36.6C61.3 36.6798 61.2988 36.7593 61.2964 36.8385C64.5761 37.6809 67 40.6574 67 44.2C67 45.5832 66.6293 46.882 65.9827 48C66.6293 49.118 67 50.4168 67 51.8C67 54.6152 65.4703 57.0695 63.1998 58.3827L63.2 58.45C63.2 63.1721 59.372 67 54.65 67C51.9632 67 49.5671 65.7614 48 63.8242C46.4328 65.7614 44.0367 67 41.35 67C36.6279 67 32.8 63.1721 32.8 58.45L32.8002 58.3827C30.5297 57.0695 29 54.6152 29 51.8C29 50.4168 29.3707 49.118 30.0172 48C29.3707 46.882 29 45.5832 29 44.2C29 40.6574 31.4239 37.6809 34.7037 36.8385C34.7012 36.7593 34.7 36.6798 34.7 36.6C34.7 32.4026 38.1026 29 42.3 29Z" fill="#4A3A1B"/>
</svg>
