<svg width="82" height="82" viewBox="0 0 82 82" fill="none" xmlns="http://www.w3.org/2000/svg">
<circle cx="41" cy="41" r="41" fill="white"/>
<path d="M33.6793 46.8864C32.0426 46.8864 30.7044 46.4883 29.6649 45.692C28.6475 44.8958 27.8955 43.8784 27.4089 42.6398C26.9444 41.379 26.7122 40.0741 26.7122 38.7249C26.7122 36.9776 26.9776 35.2303 27.5084 33.483C28.0392 31.7136 28.7691 30.0326 29.6981 28.4401C30.627 26.8255 31.6776 25.3989 32.8499 24.1603C34.0442 22.9217 35.3049 21.9486 36.632 21.2408C37.9812 20.5109 39.3193 20.146 40.6464 20.146C41.5975 20.146 42.3826 20.3671 43.0019 20.8095C43.6433 21.2518 43.9641 22.0149 43.9641 23.0987C43.9641 23.7622 43.8424 24.5032 43.5991 25.3215C43.3779 26.1399 43.0683 26.9251 42.6702 27.6771C42.2942 28.4291 41.8629 29.0484 41.3763 29.535C40.9118 30.0216 40.4363 30.2648 39.9497 30.2648C39.7506 30.2648 39.5405 30.1985 39.3193 30.0658C39.0981 29.911 38.8991 29.6677 38.7221 29.3359C39.0539 28.9599 39.4189 28.4954 39.817 27.9425C40.2372 27.3895 40.6353 26.8034 41.0113 26.1841C41.3873 25.5648 41.697 24.9676 41.9403 24.3926C42.1836 23.7954 42.3052 23.2646 42.3052 22.8001C42.3052 22.402 42.1836 22.0813 41.9403 21.838C41.7191 21.5726 41.321 21.4399 40.7459 21.4399C39.7949 21.4399 38.7996 21.8159 37.76 22.5679C36.7426 23.3199 35.7584 24.3262 34.8073 25.5869C33.8562 26.8255 32.9936 28.219 32.2195 29.7672C31.4454 31.2933 30.8371 32.8747 30.3948 34.5115C29.9524 36.1261 29.7313 37.6633 29.7313 39.123C29.7313 40.1847 29.8861 41.2021 30.1957 42.1753C30.5054 43.1485 31.0141 43.9336 31.7219 44.5308C32.4296 45.1501 33.3475 45.4598 34.4755 45.4598C35.6699 45.4598 36.8532 45.128 38.0254 44.4645C39.1977 43.8009 40.2704 42.9273 41.2436 41.8435C42.2389 40.7597 43.0351 39.5875 43.6323 38.3268L44.3622 38.8244C43.5881 40.2842 42.6702 41.6334 41.6085 42.872C40.5469 44.0885 39.3414 45.0617 37.9923 45.7915C36.6652 46.5214 35.2275 46.8864 33.6793 46.8864Z" fill="black"/>
<path d="M50.3301 62.0408C49.4912 62.0408 48.5359 61.8661 47.464 61.5165C46.4154 61.167 45.3319 60.7476 44.2135 60.2583C43.1183 59.7689 42.0348 59.2913 40.9629 58.8252C40.3804 59.4777 39.7629 59.9787 39.1105 60.3282C38.4581 60.6777 37.7474 60.8525 36.9784 60.8525C36.1862 60.8525 35.5105 60.666 34.9512 60.2932C34.3687 59.9437 33.9376 59.5126 33.658 59C33.3551 58.5107 33.2036 58.0679 33.2036 57.6718C33.2036 57.2291 33.4133 56.8446 33.8328 56.5184C34.2289 56.1689 34.9396 55.9941 35.9648 55.9941C36.5707 55.9941 37.2464 56.064 37.992 56.2038C38.761 56.3204 39.5416 56.4835 40.3338 56.6932C40.8697 55.7611 41.3707 54.6543 41.8367 53.3727C42.3028 52.0912 42.7571 50.7513 43.1999 49.3533C43.6426 47.9319 44.097 46.5338 44.563 45.159C43.4212 44.7862 42.5358 44.2503 41.9067 43.5513C41.2775 42.8522 40.9629 42.1299 40.9629 41.3842C40.9629 40.9182 41.0678 40.4638 41.2775 40.0211C41.5105 39.5784 41.8251 39.2056 42.2212 38.9026C42.6173 38.5997 43.095 38.4483 43.6542 38.4483C43.3979 38.7745 43.2232 39.1706 43.13 39.6366C43.0601 40.0794 43.0251 40.4522 43.0251 40.7551C43.0251 41.5706 43.1999 42.258 43.5494 42.8173C43.9222 43.3532 44.3766 43.7843 44.9125 44.1105C45.3552 42.759 45.8213 41.4658 46.3106 40.2308C46.8232 38.9959 47.3825 37.9007 47.9883 36.9453C48.6174 35.99 49.3048 35.2327 50.0504 34.6735C50.7961 34.1142 51.6349 33.8346 52.567 33.8346C53.0796 33.8346 53.6155 33.9511 54.1748 34.1841C54.7573 34.3939 55.2466 34.7667 55.6428 35.3026C56.0622 35.8152 56.2719 36.5609 56.2719 37.5395C56.2719 38.3318 56.0971 39.1823 55.7476 40.091C55.4214 40.9998 54.9088 41.8736 54.2097 42.7124C53.5107 43.528 52.6019 44.2153 51.4835 44.7746C50.3883 45.3105 49.0718 45.5901 47.5339 45.6134C47.4873 45.6134 47.4291 45.6134 47.3591 45.6134C47.3125 45.6134 47.2193 45.6134 47.0795 45.6134C46.6368 46.9882 46.1591 48.3863 45.6465 49.8076C45.1572 51.2057 44.6212 52.5455 44.0387 53.8271C43.4795 55.1087 42.8737 56.2388 42.2212 57.2175C43.1766 57.4971 44.2018 57.8116 45.297 58.1612C46.4154 58.4874 47.5106 58.767 48.5825 59C49.6776 59.2097 50.6446 59.3146 51.4835 59.3146C52.0194 59.3146 52.5087 59.2563 52.9515 59.1398C53.4175 59.0233 53.8835 58.8485 54.3495 58.6155C53.9301 59.8272 53.3825 60.701 52.7068 61.2369C52.0544 61.7729 51.2621 62.0408 50.3301 62.0408ZM36.6988 59.6641C37.2813 59.6641 37.7707 59.5243 38.1668 59.2447C38.5629 58.965 38.9474 58.6155 39.3202 58.1961C38.5979 57.9165 37.9105 57.6835 37.258 57.4971C36.6289 57.3107 36.058 57.2175 35.5454 57.2175C35.1027 57.2175 34.7881 57.299 34.6017 57.4621C34.4153 57.6019 34.3221 57.7883 34.3221 58.0213C34.3221 58.3942 34.5551 58.7553 35.0211 59.1049C35.4871 59.4777 36.0464 59.6641 36.6988 59.6641ZM47.4291 44.6348C48.4543 44.5882 49.3747 44.2736 50.1903 43.6911C51.0058 43.1085 51.6932 42.3978 52.2524 41.559C52.8349 40.6968 53.266 39.8347 53.5456 38.9726C53.8486 38.0871 54 37.3182 54 36.6657C54 36.0366 53.8835 35.6055 53.6505 35.3725C53.4175 35.1395 53.1379 35.023 52.8116 35.023C52.1359 35.023 51.4835 35.4657 50.8543 36.3512C50.2485 37.2366 49.666 38.4133 49.1067 39.8813C48.5475 41.326 47.9883 42.9105 47.4291 44.6348Z" fill="black"/>
</svg>
