<svg width="74" height="68" viewBox="0 0 74 68" fill="none" xmlns="http://www.w3.org/2000/svg">
<path d="M20.4822 67.4734C9.1702 52.8328 11.8685 31.7941 26.5091 20.4822C41.1497 9.17017 62.1884 11.8685 73.5003 26.5091L20.4822 67.4734Z" fill="#D3B888"/>
<path d="M45.5 24C57.374 24 67 33.6259 67 45.5C67 57.374 57.374 67 45.5 67C33.6259 67 24 57.374 24 45.5C24 33.6259 33.6259 24 45.5 24ZM45.5 28.3C36.0007 28.3 28.3 36.0007 28.3 45.5C28.3 54.9993 36.0007 62.7 45.5 62.7C54.9993 62.7 62.7 54.9993 62.7 45.5C62.7 36.0007 54.9993 28.3 45.5 28.3ZM45.5 34.75C51.437 34.75 56.25 39.5629 56.25 45.5C56.25 51.437 51.437 56.25 45.5 56.25C39.5629 56.25 34.75 51.437 34.75 45.5C34.75 44.3975 34.916 43.3339 35.2242 42.3326C36.0653 44.2001 37.9433 45.5 40.125 45.5C43.0935 45.5 45.5 43.0935 45.5 40.125C45.5 37.9433 44.2001 36.0653 42.3328 35.2229C43.3339 34.916 44.3975 34.75 45.5 34.75Z" fill="#4A3A1B"/>
</svg>
