<svg width="74" height="68" viewBox="0 0 74 68" fill="none" xmlns="http://www.w3.org/2000/svg">
<path d="M20.4822 67.4734C9.17017 52.8328 11.8685 31.7941 26.5091 20.4822C41.1496 9.17017 62.1883 11.8685 73.5003 26.5091L20.4822 67.4734Z" fill="#D3B888"/>
<path d="M51.0138 55.3294C49.8904 58.0232 47.7348 60.179 45.0408 61.3024C42.3469 60.179 40.1912 58.0232 39.0678 55.3294H42.9215C43.4781 56.1628 44.1967 56.8855 45.0408 57.4499C45.885 56.8855 46.6036 56.1628 47.1602 55.3294H51.0138ZM55.275 46.4679L58.6863 50.3367V53.6237H31.3953V50.3367L34.8067 46.4679V36.5668C34.8067 30.6255 39.0785 25.571 45.0408 23.6978C51.0032 25.571 55.275 30.6255 55.275 36.5668V46.4679ZM54.0284 50.2124L51.8636 47.757V36.5668C51.8636 32.6133 49.1843 29.0098 45.0408 27.3204C40.8973 29.0098 38.2181 32.6133 38.2181 36.5668V47.757L36.0532 50.2124H54.0284ZM45.0408 39.9782C43.1567 39.9782 41.6295 38.4508 41.6295 36.5668C41.6295 34.6828 43.1567 33.1554 45.0408 33.1554C46.9249 33.1554 48.4522 34.6828 48.4522 36.5668C48.4522 38.4508 46.9249 39.9782 45.0408 39.9782Z" fill="#4A3A1B"/>
</svg>
