<svg width="74" height="68" viewBox="0 0 74 68" fill="none" xmlns="http://www.w3.org/2000/svg">
<path d="M20.4822 67.4734C9.17018 52.8328 11.8685 31.7941 26.5091 20.4822C41.1496 9.17017 62.1883 11.8685 73.5003 26.5091L20.4822 67.4734Z" fill="#D3B888"/>
<path d="M47.3157 57.7368H57.1052V51.2105H50.5789V47.9474H57.1052V34.8947H53.842V43.0526L47.3157 40.4421V57.7368ZM44.0525 57.7368V40.4421L37.5263 43.0526V34.8947H34.2631V57.7368H44.0525ZM37.5263 31.6316V30H53.842V31.6316H58.7367C59.6379 31.6316 60.3683 32.3621 60.3683 33.2632V59.3684C60.3683 60.2695 59.6379 61 58.7367 61H32.6316C31.7305 61 31 60.2695 31 59.3684V33.2632C31 32.3621 31.7305 31.6316 32.6316 31.6316H37.5263ZM45.6841 38.1579L51.3946 33.2632H39.9737L45.6841 38.1579Z" fill="#4A3A1B"/>
</svg>
